<?xml version="1.0" ?><!DOCTYPE svg  PUBLIC '-//W3C//DTD SVG 1.1//EN'  'http://www.w3.org/Graphics/SVG/1.1/DTD/svg11.dtd'><svg height="32px" id="Layer_1" style="enable-background:new 0 0 32 32;" version="1.1" viewBox="0 0 32 32" width="32px" xml:space="preserve" xmlns="http://www.w3.org/2000/svg" xmlns:xlink="http://www.w3.org/1999/xlink"><g transform="translate(144 96)"><path d="M-140-91v-4c0-0.554,0.447-1,1-1s1,0.446,1,1v4c0,0.553-0.447,1-1,1S-140-90.447-140-91z M-123-90c0.553,0,1-0.447,1-1v-4   c0-0.554-0.447-1-1-1s-1,0.446-1,1v4C-124-90.447-123.553-90-123-90z M-112-72c0,4.418-3.582,8-8,8s-8-3.582-8-8s3.582-8,8-8   S-112-76.418-112-72z M-114-72c0-3.311-2.691-6-6-6s-6,2.689-6,6c0,3.31,2.691,6,6,6S-114-68.69-114-72z M-136-84h-4v4h4V-84z    M-140-74h4v-4h-4V-74z M-134-80h4v-4h-4V-80z M-134-74h4v-4h-4V-74z M-142-72.199V-86h22v4h2v-7.801   c0-1.217-0.969-2.199-2.166-2.199H-121v1c0,1.103-0.896,2-2,2s-2-0.897-2-2v-1h-12v1c0,1.103-0.896,2-2,2c-1.104,0-2-0.897-2-2v-1   h-0.833c-1.196,0-2.167,0.982-2.167,2.199v17.602c0,1.211,0.971,2.199,2.167,2.199H-130v-2h-11.833   C-141.924-72-142-72.095-142-72.199z M-124-80v-4h-4v4H-124z M-117-72h-3v-3c0-0.554-0.447-1-1-1s-1,0.446-1,1v4   c0,0.553,0.447,1,1,1h4c0.553,0,1-0.447,1-1C-116-71.554-116.447-72-117-72z"/></g></svg>